Coordinates
version=1
nRows=27
nColumns=12
inDegrees=yes

Units are S.I. units (second, meters, Newtons, ...)
Angles are in degrees

endheader
time	SC_y	SC_z	SC_x	AC_y	AC_z	AC_x	GH_y	GH_z	GH_yy	EL_x	PS_y
       0.0              -55.73          3.758          5.837          47.42            4.9          1.475          172.3          86.28         -102.8          106.4          56.04
   0.02591              -55.72          3.759          5.839          47.42          4.897          1.473          172.3          86.28         -102.8          106.4          56.05
   0.05183              -55.72          3.761           5.84          47.42          4.894          1.471          172.2          86.27         -102.8          106.4          56.07
   0.07774              -55.72          3.762          5.842          47.42           4.89          1.469          172.2          86.27         -102.7          106.4          56.08
    0.1037              -55.71          3.763          5.844          47.42          4.886          1.467          172.1          86.27         -102.7          106.4           56.1
    0.1296              -55.71          3.765          5.846          47.42          4.882          1.465          172.1          86.26         -102.7          106.4          56.12
    0.1555               -55.7          3.766          5.848          47.42          4.878          1.462          172.0          86.25         -102.6          106.4          56.13
    0.1814               -55.7          3.768           5.85          47.42          4.873          1.459          172.0          86.25         -102.6          106.4          56.16
    0.2073              -55.69           3.77          5.853          47.42          4.868          1.456          171.9          86.24         -102.5          106.4          56.18
    0.2332              -55.69          3.772          5.855          47.42          4.863          1.453          171.9          86.24         -102.5          106.4           56.2
    0.2591              -55.68          3.774          5.858          47.42          4.857           1.45          171.8          86.23         -102.4          106.4          56.23
    0.2851              -55.68          3.776          5.861          47.42           4.85          1.446          171.7          86.22         -102.4          106.4          56.25
     0.311              -55.67          3.778          5.864          47.42          4.844          1.442          171.7          86.21         -102.3          106.4          56.28
    0.3369              -55.66          3.781          5.868          47.42          4.836          1.438          171.6          86.21         -102.2          106.3          56.31
    0.3628              -55.65          3.783          5.872          47.42          4.829          1.433          171.5           86.2         -102.2          106.3          56.35
    0.3887              -55.65          3.786          5.876          47.42           4.82          1.428          171.4          86.19         -102.1          106.3          56.38
    0.4146              -55.64           3.79           5.88          47.42          4.811          1.423          171.3          86.17         -102.0          106.3          56.42
    0.4405              -55.63          3.793          5.885          47.42          4.801          1.417          171.2          86.16         -101.9          106.3          56.47
    0.4665              -55.62          3.797           5.89          47.42           4.79           1.41          171.0          86.15         -101.8          106.3          56.52
    0.4924               -55.6          3.801          5.896          47.42          4.778          1.403          170.9          86.13         -101.7          106.3          56.57
    0.5183              -55.59          3.806          5.902          47.42          4.764          1.395          170.7          86.12         -101.6          106.3          56.63
    0.5442              -55.58          3.811          5.909          47.43           4.75          1.387          170.6           86.1         -101.4          106.2          56.69
    0.5701              -55.56          3.817          5.917          47.43          4.734          1.377          170.4          86.08         -101.3          106.2          56.76
     0.596              -55.54          3.823          5.926          47.43          4.716          1.367          170.2          86.06         -101.1          106.2          56.84
    0.6219              -55.52           3.83          5.935          47.43          4.696          1.355          169.9          86.04         -100.9          106.2          56.92
    0.6478               -55.5          3.838          5.946          47.43          4.674          1.342          169.7          86.01         -100.7          106.2          57.02
    0.6738              -55.48          3.847          5.958          47.43          4.649          1.327          169.4          85.98         -100.5          106.1          57.13
